<?xml version="1.0" encoding="utf-8"?>
<!-- Generator: Adobe Illustrator 24.1.0, SVG Export Plug-In . SVG Version: 6.00 Build 0)  -->
<svg version="1.1" id="Layer_1" xmlns="http://www.w3.org/2000/svg" xmlns:xlink="http://www.w3.org/1999/xlink" x="0px" y="0px"
	 width="1000px" height="1000px" viewBox="0 0 1000 1000" enable-background="new 0 0 1000 1000" xml:space="preserve">
<ellipse id="shadow_2_" opacity="0.3" fill="#808080" cx="494.266" cy="874.166" rx="183.253" ry="16.569"/>
<g id="cup">
	<path fill="#A48421" d="M633.272,839.873l-1.773,29.212c-0.135,2.231-1.984,3.971-4.219,3.971H372.72
		c-2.235,0-4.084-1.74-4.219-3.971l-1.773-29.212H633.272z"/>
	<path fill="#A48421" d="M666.637,408.683l-27.006,426.438c-0.169,2.672-2.385,4.752-5.062,4.752H365.432
		c-2.677,0-4.893-2.08-5.062-4.752l-27.006-426.438H666.637z"/>
	<path id="shadow" opacity="0.3" d="M663.392,459.919l3.245-51.236H333.363l3.245,51.236
		c38.864-14.046,97.628-22.997,163.392-22.997S624.528,445.873,663.392,459.919z"/>
	<path id="shadow_1_" opacity="0.3" d="M500,848.338c50.05,0,96.038,2.868,132.293,7.661l0.979-16.126H366.728l0.979,16.126
		C403.962,851.206,449.95,848.338,500,848.338z"/>
	<path opacity="0.3" d="M356.39,772.277l1.136,17.942h284.948l1.136-17.942c-39.427,5.308-89.325,8.482-143.61,8.482
		S395.817,777.585,356.39,772.277z"/>
	<polygon fill="#FFDE00" points="646.639,786.966 663.28,524.174 336.72,524.174 353.361,786.966 	"/>
	
		<line fill="none" stroke="#808080" stroke-width="2.0524" stroke-miterlimit="10" x1="337.9" y1="542.808" x2="662.1" y2="542.808"/>
	
		<line fill="none" stroke="#808080" stroke-width="2.0524" stroke-miterlimit="10" x1="352.314" y1="770.435" x2="647.686" y2="770.435"/>
	<path id="logo" fill="#231F20" d="M544.281,719.265c-8.689-6.55-6.818-18.313-1.872-25.398c0.968-1.386,2.2-3.224,3.539-5.379
		c7.231-5.244,11.19-12.05,12.983-19.464c5.712-4.866,12.954-8.989,19.437-6.436c8.823,3.476-3.074,14.57-8.689,16.041
		c-2.54,6.149-0.267,21.922,4.946,25.398c7.085-1.871,15.105-13.367,12.699-24.729c4.896-8.336,13.426-37.081-28.143-32.35
		c-0.022-0.133-0.038-0.267-0.061-0.4v0.134c-5.48-27.403-13.634-29.675-13.1-36.76c0.267,4.01,7.753,3.609,9.223,3.743
		c0.936,0,1.738,0.267,2.54,0.668c1.069,2.406,5.347,10.159,14.169,5.481c-6.817,0.134-11.362-5.614-11.763-8.555l-0.133-0.134
		c-0.267-3.342,0.267-6.55,4.411-4.946c-5.48,2.005-0.936,10.828,6.818,10.293c4.01-0.267,7.085-1.871,9.09-3.208
		c4.679-5.347,6.149-12.565,1.738-15.907c-4.678-3.609-8.822-2.673-11.362-1.337c-1.398-1.666-3.057-3.671-4.896-5.882
		c0.881-1.172,1.421-2.605,1.421-4.143c0-3.275-2.298-5.954-5.266-6.714c0.872-2.224,1.971-5.028,3.394-8.658
		c-8.095,0.977-12.017,4.282-13.936,7.221c-1.531-0.109-2.989-0.112-4.401-0.052c0.213-2.5,0.48-5.645,0.826-9.709
		c-6.481,2.81-9.652,6.357-11.175,9.493c-40.242,0.46-37.215,59.884-37.215,59.884c0.683,0,3.056,0,10.293,0
		c-0.681-45.818,16.893-56.514,26.518-58.946c-0.269,0.682-0.481,1.341-0.619,1.957c-25.779,11.984-22.424,59.797-22.424,59.797
		h-59.351c-0.098,0.039-0.177,0.093-0.274,0.134h-30.47c0,0-16.442,4.278-10.961,20.051c5.614,15.773,11.496,34.087-3.743,37.161
		c15.105,13.367,34.087,0,31.279-14.169c-2.807-14.169-8.689-34.086-1.203-35.29c2.527-0.406,4.622-0.526,6.337-0.523
		c-5.867,9.281-3.42,23.337,0.08,31.936c4.678,11.496-3.342,25.131-3.342,25.131v0.134c2.634,2.239,8.496,9.828,6.751,31.144
		c-24.09,0.698-39.902,1.875-39.902,3.209c0,2.139,40.77,3.876,90.898,3.876c50.261,0,90.898-1.738,90.898-3.876
		c0-1.169-12.242-2.217-31.484-2.928C558.359,731.754,556.026,723.095,544.281,719.265z M476.348,735.436
		c-0.635-4.672-3.356-12.566-14.41-16.171c-0.133-0.134-0.267-0.267-0.401-0.267l-1.471-1.069
		c-4.278-12.833-2.941-14.704,3.342-17.779c4.812-2.406,10.159-7.62,12.833-10.828h5.796c-1.009,2.289-4.672,6.469-12.479,11.095
		c-6.416,3.743-6.55,3.208-1.604,17.377c11.63,3.876,13.902,12.699,14.303,17.11h11.228c-0.267-4.278-2.005-15.773-18.714-19.383
		l-0.134-0.134c-4.01-4.411-6.283-11.629,5.748-17.377c3.915-1.902,7.941-5.628,10.821-8.689h36.393
		c-1.941,9.081-3.614,24.26,3.047,36.092c-0.207,5.174-0.332,8.251-0.317,10.128c-9.681-0.15-20.078-0.236-30.963-0.236
		C491.397,735.306,483.711,735.354,476.348,735.436z"/>
</g>
<g id="steam">
	<path fill="#CCCCCC" d="M606.787,69.967c22.2-0.844,40.424-4.304,53.4,18.524c11.894,20.925,6.976,48.463-11.777,63.64
		c-14.486,11.724-39.077,13.163-43.716,34.904c-4.713,22.087,15.361,45.009,37.471,45.031c-9.611,3.446-21.173,5.007-30.754,0.675
		C593.339,224.57,582.434,204.424,584,184.8c2.052-25.698,21.806-36.556,41.25-48.498c20.966-12.878,30.486-34.165,11.884-53.91
		C629.406,74.189,618.048,69.539,606.787,69.967z"/>
	<path fill="#CCCCCC" d="M546.944,69.563c18.21,0.183,42.163,11.339,31.522,33.349c-3.372,6.974-9.481,12.262-16.011,16.43
		c-11.173,7.131-24.19,17.853-11.956,31.387c3.973,4.395,9.615,6.979,15.371,8.381c-16.799,0.712-35.618-8.428-31.44-28.255
		c2.632-12.491,13.436-18.025,23.456-23.958C576.678,95.768,568.468,69.779,546.944,69.563z"/>
</g>
<g id="cap">
	<path fill="#231F20" d="M653.921,335.506H346.079v-25.045c0-6.281,4.843-11.499,11.107-11.967l267.881-19.991
		c8.858-0.661,16.873,5.238,18.876,13.892L653.921,335.506z"/>
	<rect x="312.554" y="366.878" fill="#666666" width="374.891" height="35.505"/>
	<path fill="#231F20" d="M692.912,420.225H307.088v-29.41c0-2.761,2.239-5,5-5h375.825c2.761,0,5,2.239,5,5V420.225z"/>
	<path fill="#231F20" d="M688.603,378.713H311.397c-2.193,0-3.806-2.056-3.285-4.186l6.715-27.423
		c1.667-6.809,7.771-11.598,14.781-11.598h340.782c7.01,0,13.113,4.789,14.781,11.598l6.715,27.423
		C692.409,376.658,690.796,378.713,688.603,378.713z"/>
	
		<line fill="none" stroke="#808080" stroke-width="2" stroke-miterlimit="10" x1="346.079" y1="335.506" x2="653.921" y2="335.506"/>
</g>
</svg>
